PathFileType	4	(X/Y/Z)	/Users/niels/Desktop/University/Third Semester/Perception and Action/Exam/Gymnastics Motion Tracking/Code for Gym Tracking/Analyzed Data/Start Salto/stsalto_bad_id10_1_Sports2D/stsalto_bad_id10_1_Sports2D_px_person00.trc
DataRate	CameraRate	NumFrames	NumMarkers	Units	OrigDataRate	OrigDataStartFrame	OrigNumFrames
29.8159509202454	29.8159509202454	10	22	m	29.8159509202454	0	163
Frame#	Time	Hip			RHip			RKnee			RAnkle			RBigToe			RSmallToe			RHeel			LHip			LKnee			LAnkle			LBigToe			LSmallToe			LHeel			Neck			Head			Nose			RShoulder			RElbow			RWrist			LShoulder			LElbow			LWrist		
		X1	Y1	Z1	X2	Y2	Z2	X3	Y3	Z3	X4	Y4	Z4	X5	Y5	Z5	X6	Y6	Z6	X7	Y7	Z7	X8	Y8	Z8	X9	Y9	Z9	X10	Y10	Z10	X11	Y11	Z11	X12	Y12	Z12	X13	Y13	Z13	X14	Y14	Z14	X15	Y15	Z15	X16	Y16	Z16	X17	Y17	Z17	X18	Y18	Z18	X19	Y19	Z19	X20	Y20	Z20	X21	Y21	Z21	X22	Y22	Z22
0	0.0	0.03298983997490684	-0.5074947645989247	0.0	0.014202656909917169	-0.5245697127651073	0.0	0.0587027326957627	-0.6356044215225543	0.0	-0.001199035610497462	-0.7328954355372795	0.0	0.01919164532648533	-0.7841780320672882	0.0	0.002121783735608023	-0.7824520758153969	0.0	-0.009756194370716148	-0.7465285055841117	0.0	0.058617653052425105	-0.5177330667539142	0.0	0.1492339829004473	-0.5877586788329592	0.0	0.10641309862563254	-0.7021445870589639	0.0	0.1473192944664939	-0.7363315462132433	0.0	0.14902159370176343	-0.7295073874258512	0.0	0.09272491978840122	-0.7174889581466183	0.0	0.01951131890065937	-0.32993828548797854	0.0	0.02462766092441467	-0.2565617450390744	0.0	0.05365880057615565	-0.2975352844770962	0.0	0.002424102868606963	-0.35043479443255415	0.0	0.004048551284501599	-0.41379221410392303	0.0	0.0006437904612049444	-0.4686506666332205	0.0	0.06050024488029029	-0.34872072389816744	0.0	0.0894753649805068	-0.41040342375377936	0.0	0.14072758360932694	-0.44986138843396345	0.0
1	0.03353909465020576	0.08280094999001283	-0.5082697059122332	0.0	0.06152051879263129	-0.5198020513118339	0.0	0.12186950705108701	-0.6276014301375277	0.0	0.08371002836318427	-0.7366303191601202	0.0	0.11348787224482576	-0.7758599241459028	0.0	0.09673875565825597	-0.7767686945605345	0.0	0.07411700711175852	-0.7522865894426981	0.0	0.10801276215585572	-0.513810697761294	0.0	0.1964937061207008	-0.5910033357431492	0.0	0.17262765908031258	-0.7077976115576394	0.0	0.21750104377658847	-0.7369666033963852	0.0	0.21705209865271402	-0.7308543100414152	0.0	0.16152981834991847	-0.7252307495434752	0.0	0.07737940313384971	-0.3325154733833079	0.0	0.07896566601868864	-0.25396345371151513	0.0	0.10907566414776189	-0.299318554001936	0.0	0.052834297745051696	-0.3542854723368232	0.0	0.066247778663712	-0.42273635743234994	0.0	0.08914208708923096	-0.47798850316047015	0.0	0.11571111803540987	-0.35315700203337075	0.0	0.14847646381222118	-0.4202290690933798	0.0	0.20371820788233633	-0.4641140953343719	0.0
2	0.06707818930041153	0.13309077598232133	-0.511265608151285	0.0	0.11018809521417908	-0.5182652554748701	0.0	0.18521317837039128	-0.6226602590785955	0.0	0.1682021066605397	-0.7414662728994664	0.0	0.20650253868596277	-0.7693773734134963	0.0	0.19019573538585058	-0.7727123323118212	0.0	0.1584799748351294	-0.7590344048557066	0.0	0.15778066437224986	-0.5127175944812981	0.0	0.24510406383292024	-0.5963532788219341	0.0	0.23843074123338176	-0.7151176245971774	0.0	0.28695516990975267	-0.7392484812245035	0.0	0.2846857712293496	-0.7340252730888113	0.0	0.229900366120615	-0.7344259355505995	0.0	0.13534062236815117	-0.3373902239375838	0.0	0.13403734157335723	-0.2544502705169486	0.0	0.1651030323285864	-0.3033761306229113	0.0	0.10535890840144084	-0.36026263143413695	0.0	0.13247953256736356	-0.430058364065584	0.0	0.17875146878495693	-0.4817366169333908	0.0	0.17106025488121626	-0.3593135128239262	0.0	0.20879518226281474	-0.42844326836700564	0.0	0.2679216293339279	-0.4723335471301846	0.0
3	0.10061728395061728	0.18422632198361003	-0.517943604301679	0.0	0.16096265979801092	-0.5220587260012068	0.0	0.24817607062122474	-0.622927945421659	0.0	0.250266533076443	-0.7484449328287015	0.0	0.29560399221059325	-0.7666978233712171	0.0	0.2799755800858826	-0.7720523673973337	0.0	0.24151160744380482	-0.7675724274549282	0.0	0.20816020989988973	-0.5164166340104265	0.0	0.29540823856563647	-0.6052217044366545	0.0	0.3027238312367847	-0.7254182792599267	0.0	0.3542575362438034	-0.7448182541397286	0.0	0.3507072440106708	-0.740614453216631	0.0	0.2965776483621379	-0.7462415995008777	0.0	0.1932812914767711	-0.346038164534497	0.0	0.1904029260304877	-0.2599454414661632	0.0	0.22207117609269686	-0.31118761663664385	0.0	0.1608963614236812	-0.36952366706152107	0.0	0.20395989664106895	-0.43442661568990437	0.0	0.26801531204587487	-0.47585912892362847	0.0	0.22642888332024405	-0.36814474381940504	0.0	0.27078054386703937	-0.43347108421029684	0.0	0.33306236744923107	-0.4699803661745438	0.0
4	0.13415637860082305	0.23651799905307055	-0.5287310464292275	0.0	0.21405973987202775	-0.5316849423980753	0.0	0.3096565219572802	-0.6293039974366396	0.0	0.326667317204214	-0.7585369790630901	0.0	0.3770821548081041	-0.7697789702855216	0.0	0.36240042567023656	-0.7765388874812804	0.0	0.31940022832851805	-0.7785702207058113	0.0	0.2593530755092823	-0.5256229288199717	0.0	0.3467191998623567	-0.6181718758791739	0.0	0.3637536221517713	-0.7395336017236499	0.0	0.4172994225017516	-0.7551829164607222	0.0	0.4130249647154529	-0.7518375718944499	0.0	0.3594482999662511	-0.761324467630185	0.0	0.2509164778879639	-0.3586608048922637	0.0	0.2483249072785819	-0.2707922951356873	0.0	0.2799502336806672	-0.32296920231116527	0.0	0.21904888284835428	-0.38187442770924945	0.0	0.27892971998603727	-0.4349900887152303	0.0	0.3529421450967205	-0.4588968850155955	0.0	0.2815040484084666	-0.3797191221166826	0.0	0.3336061823037201	-0.43417702613879644	0.0	0.39699394916806835	-0.455350355105095	0.0
5	0.16769547325102882	0.29027789591014963	-0.5426409388083115	0.0	0.2695243966298498	-0.5457265623734118	0.0	0.36834474635102443	-0.6411814069536664	0.0	0.3940979784445095	-0.7720745692429701	0.0	0.44715467352093297	-0.7797471878025242	0.0	0.4334919402053835	-0.787062861462521	0.0	0.38798502107470967	-0.7921948123108615	0.0	0.3115953783489878	-0.5393657834658895	0.0	0.3976457671193661	-0.6346673629267447	0.0	0.41932748504613554	-0.7573451452303334	0.0	0.4734976445902685	-0.7710046629197111	0.0	0.4689472772337287	-0.7680154778595132	0.0	0.41584021979689373	-0.7793082727897824	0.0	0.3082183331372341	-0.3737884922191059	0.0	0.30811431084719876	-0.2856116929604549	0.0	0.338780543016223	-0.3373437185701408	0.0	0.27906891706117326	-0.3956174245730302	0.0	0.3545366555410872	-0.4313113783516018	0.0	0.42963259559573697	-0.4322133835426876	0.0	0.3361332197493919	-0.3929985395358416	0.0	0.39607916811649113	-0.4300691763478932	0.0	0.4571962586399605	-0.430029316198004	0.0
6	0.20123456790123456	0.3452735308913278	-0.5571117037120225	0.0	0.3268581585635787	-0.5609498954742295	0.0	0.4225739205659026	-0.6562992441314988	0.0	0.44973164729548837	-0.7879106046829694	0.0	0.502741476127043	-0.7956969492235078	0.0	0.4897963883169351	-0.8025871498975873	0.0	0.4438305576678432	-0.8074155408608744	0.0	0.364647555690791	-0.5548555576257839	0.0	0.44614836467887026	-0.6527885025630109	0.0	0.4668775224862826	-0.7771770433083088	0.0	0.5199613491488307	-0.7910669885058916	0.0	0.5154644682934532	-0.7877996739183011	0.0	0.4628019123752234	-0.79841544815108	0.0	0.3653035010046705	-0.3884239566562139	0.0	0.3700303065247009	-0.30144526381715786	0.0	0.3985456613897769	-0.35155578626694517	0.0	0.34015662703484506	-0.4078777763723984	0.0	0.42804823747436543	-0.4233773906671941	0.0	0.49650978298752735	-0.39954736308877803	0.0	0.3902360013376486	-0.40564883167332016	0.0	0.45716567182947326	-0.4213126823771345	0.0	0.5124755682951957	-0.3982027208241494	0.0
7	0.23477366255144033	0.4002850182760332	-0.568257932633396	0.0	0.38452666221737897	-0.5728080957256347	0.0	0.47039524036891056	-0.6707490810932838	0.0	0.49164911182285576	-0.8028277736469119	0.0	0.5421870566794027	-0.8139603379081318	0.0	0.5294397478693964	-0.8196080240168934	0.0	0.48486495045027195	-0.8213879819799446	0.0	0.41741084742594736	-0.567754106487484	0.0	0.4897938096563623	-0.6691062306746026	0.0	0.5040214072434515	-0.795410182748715	0.0	0.5542120132113101	-0.811663981970872	0.0	0.5500345594003963	-0.8076779269703878	0.0	0.4979446951428856	-0.8152664036908714	0.0	0.4221481986982435	-0.3987464458631602	0.0	0.43422163021233684	-0.31439583863311077	0.0	0.4589323469365943	-0.3622200204103166	0.0	0.4013878961189955	-0.4152231571710931	0.0	0.49740866002902095	-0.4116895067520319	0.0	0.5554039864769902	-0.3660268935274273	0.0	0.44368800851415957	-0.41417392203988646	0.0	0.5161775965288085	-0.4086786005376044	0.0	0.5640323044063466	-0.3653264892394053	0.0
8	0.2683127572016461	0.45330412530605346	-0.5717295791827304	0.0	0.44015964993203294	-0.576457043860236	0.0	0.5102988996346988	-0.6795811141188844	0.0	0.5197737505999568	-0.811954915486147	0.0	0.5661062059020894	-0.8288559101791907	0.0	0.553200185994479	-0.8328754993989487	0.0	0.5112106337173492	-0.8296513735953195	0.0	0.4680849871699009	-0.5730637802420215	0.0	0.5265307631562872	-0.6791384215005785	0.0	0.5298636363472219	-0.8069498961868683	0.0	0.5755756402311392	-0.827332201817295	0.0	0.5719735121712515	-0.8225725133226934	0.0	0.5208990671392081	-0.8252767837837724	0.0	0.47857415920715507	-0.4012586779434449	0.0	0.5007562399704699	-0.3209741603950429	0.0	0.5195208244394038	-0.36643237066344164	0.0	0.46193366727197144	-0.4145658451709015	0.0	0.5617030706487525	-0.39735594292218385	0.0	0.6108869299386417	-0.33693692561003574	0.0	0.496322906995127	-0.41486768681978997	0.0	0.5728729438083305	-0.39350792961654946	0.0	0.6150673657195446	-0.33680367688976154	0.0
9	0.30185185185185187	0.5022988469827648	-0.5641984074364959	0.0	0.49149587919963117	-0.5683700773094414	0.0	0.5423104274969787	-0.6783404346694872	0.0	0.5365467556947077	-0.8103402430904211	0.0	0.5774692329962932	-0.8347137602076303	0.0	0.5644612010688236	-0.8371355560636436	0.0	0.5256396537491689	-0.8274087993330863	0.0	0.5148129774676597	-0.5668268043759607	0.0	0.555835422484045	-0.6787317929260306	0.0	0.5459230839283158	-0.8067796899981952	0.0	0.5857820434015555	-0.8327888155110849	0.0	0.583017266988388	-0.8275480610705069	0.0	0.5339888054122199	-0.8238657001412522	0.0	0.534575368602049	-0.39417358766602384	0.0	0.5694140123588279	-0.31975893977261316	0.0	0.580141319273435	-0.3630339194736823	0.0	0.5215047707062863	-0.4044038864200353	0.0	0.6212811346772433	-0.38211953335049575	0.0	0.6677188719945674	-0.3167252367334625	0.0	0.5481948088439126	-0.40555268449351917	0.0	0.6275289265117616	-0.3777276864278541	0.0	0.6688766123441389	-0.31707167918573054	0.0
